<mxfile host="app.diagrams.net" modified="2022-03-02T20:01:17.873Z" agent="5.0 (Windows NT 10.0; Win64; x64) AppleWebKit/537.36 (KHTML, like Gecko) Chrome/98.0.4758.102 Safari/537.36 OPR/84.0.4316.21" etag="vued40lEwpAopmWSZHya" version="16.6.4" type="github">
  <diagram id="U4zcEyD71DrYJ79Z5BTP" name="Page-1">
    <mxGraphModel dx="1843" dy="1019" grid="1" gridSize="10" guides="1" tooltips="1" connect="1" arrows="1" fold="1" page="1" pageScale="1" pageWidth="827" pageHeight="1169" math="0" shadow="0">
      <root>
        <mxCell id="0" />
        <mxCell id="1" parent="0" />
        <mxCell id="FiIvBotgQiwK-fZUpWUC-3" value="" style="edgeStyle=orthogonalEdgeStyle;rounded=0;orthogonalLoop=1;jettySize=auto;html=1;" edge="1" parent="1" source="FiIvBotgQiwK-fZUpWUC-1" target="FiIvBotgQiwK-fZUpWUC-2">
          <mxGeometry relative="1" as="geometry" />
        </mxCell>
        <mxCell id="FiIvBotgQiwK-fZUpWUC-1" value="Choose source path of directory with csv files and path of directory with output csv file" style="rounded=0;whiteSpace=wrap;html=1;" vertex="1" parent="1">
          <mxGeometry x="60" y="30" width="180" height="60" as="geometry" />
        </mxCell>
        <mxCell id="FiIvBotgQiwK-fZUpWUC-5" value="" style="edgeStyle=orthogonalEdgeStyle;rounded=0;orthogonalLoop=1;jettySize=auto;html=1;" edge="1" parent="1" source="FiIvBotgQiwK-fZUpWUC-2" target="FiIvBotgQiwK-fZUpWUC-4">
          <mxGeometry relative="1" as="geometry" />
        </mxCell>
        <mxCell id="FiIvBotgQiwK-fZUpWUC-2" value="Read csv files and save it as list with dataframes (df_field_players)" style="whiteSpace=wrap;html=1;rounded=0;" vertex="1" parent="1">
          <mxGeometry x="90" y="160" width="120" height="60" as="geometry" />
        </mxCell>
        <mxCell id="FiIvBotgQiwK-fZUpWUC-7" value="" style="edgeStyle=orthogonalEdgeStyle;rounded=0;orthogonalLoop=1;jettySize=auto;html=1;" edge="1" parent="1" source="FiIvBotgQiwK-fZUpWUC-4" target="FiIvBotgQiwK-fZUpWUC-6">
          <mxGeometry relative="1" as="geometry" />
        </mxCell>
        <mxCell id="FiIvBotgQiwK-fZUpWUC-4" value="Choose needed parameters of players and save it to existing dataframe (df_field_players)" style="whiteSpace=wrap;html=1;rounded=0;" vertex="1" parent="1">
          <mxGeometry x="90" y="270" width="120" height="80" as="geometry" />
        </mxCell>
        <mxCell id="FiIvBotgQiwK-fZUpWUC-9" value="" style="edgeStyle=orthogonalEdgeStyle;rounded=0;orthogonalLoop=1;jettySize=auto;html=1;" edge="1" parent="1" source="FiIvBotgQiwK-fZUpWUC-6" target="FiIvBotgQiwK-fZUpWUC-8">
          <mxGeometry relative="1" as="geometry" />
        </mxCell>
        <mxCell id="FiIvBotgQiwK-fZUpWUC-6" value="Remove goalkeepers due to to many different parameters from field players" style="whiteSpace=wrap;html=1;rounded=0;" vertex="1" parent="1">
          <mxGeometry x="90" y="370" width="120" height="60" as="geometry" />
        </mxCell>
        <mxCell id="FiIvBotgQiwK-fZUpWUC-17" value="" style="edgeStyle=orthogonalEdgeStyle;rounded=0;orthogonalLoop=1;jettySize=auto;html=1;" edge="1" parent="1" source="FiIvBotgQiwK-fZUpWUC-8" target="FiIvBotgQiwK-fZUpWUC-16">
          <mxGeometry relative="1" as="geometry" />
        </mxCell>
        <mxCell id="FiIvBotgQiwK-fZUpWUC-8" value="Optimization for types of data" style="whiteSpace=wrap;html=1;rounded=0;" vertex="1" parent="1">
          <mxGeometry x="90" y="450" width="120" height="60" as="geometry" />
        </mxCell>
        <mxCell id="FiIvBotgQiwK-fZUpWUC-19" value="" style="edgeStyle=orthogonalEdgeStyle;rounded=0;orthogonalLoop=1;jettySize=auto;html=1;" edge="1" parent="1" source="FiIvBotgQiwK-fZUpWUC-16" target="FiIvBotgQiwK-fZUpWUC-18">
          <mxGeometry relative="1" as="geometry" />
        </mxCell>
        <mxCell id="FiIvBotgQiwK-fZUpWUC-22" value="" style="edgeStyle=orthogonalEdgeStyle;rounded=0;orthogonalLoop=1;jettySize=auto;html=1;" edge="1" parent="1" source="FiIvBotgQiwK-fZUpWUC-16" target="FiIvBotgQiwK-fZUpWUC-21">
          <mxGeometry relative="1" as="geometry" />
        </mxCell>
        <mxCell id="FiIvBotgQiwK-fZUpWUC-16" value="Are all dataframes in list optimized?&amp;nbsp;" style="ellipse;whiteSpace=wrap;html=1;rounded=0;" vertex="1" parent="1">
          <mxGeometry x="90" y="530" width="120" height="100" as="geometry" />
        </mxCell>
        <mxCell id="FiIvBotgQiwK-fZUpWUC-25" value="" style="edgeStyle=orthogonalEdgeStyle;rounded=0;orthogonalLoop=1;jettySize=auto;html=1;" edge="1" parent="1" source="FiIvBotgQiwK-fZUpWUC-18" target="FiIvBotgQiwK-fZUpWUC-24">
          <mxGeometry relative="1" as="geometry" />
        </mxCell>
        <mxCell id="FiIvBotgQiwK-fZUpWUC-18" value="Yes" style="whiteSpace=wrap;html=1;rounded=0;" vertex="1" parent="1">
          <mxGeometry x="130" y="650" width="40" height="30" as="geometry" />
        </mxCell>
        <mxCell id="FiIvBotgQiwK-fZUpWUC-23" style="edgeStyle=orthogonalEdgeStyle;rounded=0;orthogonalLoop=1;jettySize=auto;html=1;exitX=0.5;exitY=0;exitDx=0;exitDy=0;entryX=1;entryY=0.5;entryDx=0;entryDy=0;" edge="1" parent="1" source="FiIvBotgQiwK-fZUpWUC-21" target="FiIvBotgQiwK-fZUpWUC-4">
          <mxGeometry relative="1" as="geometry" />
        </mxCell>
        <mxCell id="FiIvBotgQiwK-fZUpWUC-21" value="No" style="whiteSpace=wrap;html=1;rounded=0;" vertex="1" parent="1">
          <mxGeometry x="240" y="565" width="40" height="30" as="geometry" />
        </mxCell>
        <mxCell id="FiIvBotgQiwK-fZUpWUC-29" value="" style="edgeStyle=orthogonalEdgeStyle;rounded=0;orthogonalLoop=1;jettySize=auto;html=1;" edge="1" parent="1" source="FiIvBotgQiwK-fZUpWUC-24" target="FiIvBotgQiwK-fZUpWUC-28">
          <mxGeometry relative="1" as="geometry" />
        </mxCell>
        <mxCell id="FiIvBotgQiwK-fZUpWUC-37" style="edgeStyle=orthogonalEdgeStyle;rounded=0;orthogonalLoop=1;jettySize=auto;html=1;exitX=0.5;exitY=1;exitDx=0;exitDy=0;entryX=0.5;entryY=0;entryDx=0;entryDy=0;" edge="1" parent="1" source="FiIvBotgQiwK-fZUpWUC-24" target="FiIvBotgQiwK-fZUpWUC-28">
          <mxGeometry relative="1" as="geometry" />
        </mxCell>
        <mxCell id="FiIvBotgQiwK-fZUpWUC-24" value="Inner merge (pandas function) by short_name column in dataframes from list (ex. 1st to 2nd -&amp;gt; merged 1st and 2nd to 3rd)" style="whiteSpace=wrap;html=1;rounded=0;" vertex="1" parent="1">
          <mxGeometry x="90" y="700" width="120" height="100" as="geometry" />
        </mxCell>
        <mxCell id="FiIvBotgQiwK-fZUpWUC-31" value="" style="edgeStyle=orthogonalEdgeStyle;rounded=0;orthogonalLoop=1;jettySize=auto;html=1;" edge="1" parent="1" source="FiIvBotgQiwK-fZUpWUC-28" target="FiIvBotgQiwK-fZUpWUC-30">
          <mxGeometry relative="1" as="geometry" />
        </mxCell>
        <mxCell id="FiIvBotgQiwK-fZUpWUC-34" value="" style="edgeStyle=orthogonalEdgeStyle;rounded=0;orthogonalLoop=1;jettySize=auto;html=1;" edge="1" parent="1" source="FiIvBotgQiwK-fZUpWUC-28" target="FiIvBotgQiwK-fZUpWUC-33">
          <mxGeometry relative="1" as="geometry" />
        </mxCell>
        <mxCell id="FiIvBotgQiwK-fZUpWUC-28" value="Are all dataframes merged to one?" style="ellipse;whiteSpace=wrap;html=1;rounded=0;" vertex="1" parent="1">
          <mxGeometry x="90" y="850" width="120" height="90" as="geometry" />
        </mxCell>
        <mxCell id="FiIvBotgQiwK-fZUpWUC-32" style="edgeStyle=orthogonalEdgeStyle;rounded=0;orthogonalLoop=1;jettySize=auto;html=1;entryX=1;entryY=0.5;entryDx=0;entryDy=0;" edge="1" parent="1" source="FiIvBotgQiwK-fZUpWUC-30" target="FiIvBotgQiwK-fZUpWUC-24">
          <mxGeometry relative="1" as="geometry">
            <Array as="points">
              <mxPoint x="260" y="750" />
              <mxPoint x="210" y="750" />
            </Array>
          </mxGeometry>
        </mxCell>
        <mxCell id="FiIvBotgQiwK-fZUpWUC-30" value="No" style="whiteSpace=wrap;html=1;rounded=0;" vertex="1" parent="1">
          <mxGeometry x="250" y="880" width="30" height="30" as="geometry" />
        </mxCell>
        <mxCell id="FiIvBotgQiwK-fZUpWUC-36" value="" style="edgeStyle=orthogonalEdgeStyle;rounded=0;orthogonalLoop=1;jettySize=auto;html=1;" edge="1" parent="1" source="FiIvBotgQiwK-fZUpWUC-33" target="FiIvBotgQiwK-fZUpWUC-35">
          <mxGeometry relative="1" as="geometry" />
        </mxCell>
        <mxCell id="FiIvBotgQiwK-fZUpWUC-33" value="Yes" style="whiteSpace=wrap;html=1;rounded=0;" vertex="1" parent="1">
          <mxGeometry x="130" y="960" width="40" height="25" as="geometry" />
        </mxCell>
        <mxCell id="FiIvBotgQiwK-fZUpWUC-42" value="" style="edgeStyle=orthogonalEdgeStyle;rounded=0;orthogonalLoop=1;jettySize=auto;html=1;" edge="1" parent="1" source="FiIvBotgQiwK-fZUpWUC-35" target="FiIvBotgQiwK-fZUpWUC-41">
          <mxGeometry relative="1" as="geometry" />
        </mxCell>
        <mxCell id="FiIvBotgQiwK-fZUpWUC-35" value="Split merged dataframe to list of new dataframes for separated csv&amp;nbsp;" style="whiteSpace=wrap;html=1;rounded=0;" vertex="1" parent="1">
          <mxGeometry x="90" y="1020" width="120" height="60" as="geometry" />
        </mxCell>
        <mxCell id="FiIvBotgQiwK-fZUpWUC-41" value="Load dataframes to csv files and save it in chosen directory path" style="whiteSpace=wrap;html=1;rounded=0;" vertex="1" parent="1">
          <mxGeometry x="90" y="1100" width="120" height="60" as="geometry" />
        </mxCell>
      </root>
    </mxGraphModel>
  </diagram>
</mxfile>
